<svg width="202px" height="65px" viewBox="0 0 202 65" version="1.1" xmlns="http://www.w3.org/2000/svg"
     xmlns:xlink="http://www.w3.org/1999/xlink">
    <!-- Generator: Sketch 50.2 (55047) - http://www.bohemiancoding.com/sketch -->
    <desc>Created with Sketch.</desc>
    <defs></defs>
    <g id="Style-Guide" stroke="none" stroke-width="1" fill="none" fill-rule="evenodd">
        <g id="Logos" transform="translate(-376.000000, -107.000000)">
            <g id="-g-LOGO/Logo" transform="translate(375.000000, 106.000000)">
                <g id="Group">
                    <path d="M85.48,52.69 C75.98,52.69 69.18,45.18 69.18,35.85 C69.18,26.52 75.98,18.85 85.48,18.85 C93.08,18.85 98.84,23.23 100.68,30.5 L92,30.5 C90.7263529,28.0418884 88.2080396,26.4794593 85.44,26.43 C80.97,26.43 77.36,30.69 77.36,35.89 C77.36,41.09 80.97,45.16 85.44,45.16 C88.2719612,45.157903 90.8557695,43.5439928 92.1,41 L100.74,41 C98.9,48.33 93.14,52.65 85.48,52.65"
                          id="Shape" fill="#000000" fill-rule="nonzero"></path>
                    <path d="M117.27,51.89 C108.01,52.89 103.11,47.19 103.11,38.37 L103.11,11.51 L111.2,11.51 L111.2,19.71 L116.9,19.71 L116.9,27 L111.2,27 L111.2,38.43 C111.2,42.94 113.2,44.63 117.27,44.38 L117.27,51.89 Z"
                          id="Shape" fill="#000000" fill-rule="nonzero"></path>
                    <rect id="Rectangle-path" fill="#000000" fill-rule="nonzero" x="119.8" y="19.71" width="8.09"
                          height="32.25"></rect>
                    <path d="M179.87,18.89 C188.74,18.89 193.98,24.84 193.98,33.29 L193.98,52 L185.84,52 L185.84,33.11 C185.84,31.29 185.22,26.97 179.84,26.97 C178.188119,26.8956941 176.580867,27.5179969 175.40973,28.6853318 C174.238593,29.8526667 173.611066,31.4578858 173.68,33.11 L173.68,52 L165.54,52 L165.54,33.3 C165.54,25.1 171.21,18.9 179.84,18.9"
                          id="Shape" fill="#000000" fill-rule="nonzero"></path>
                    <path d="M145.71,52 C136.89,52 130.27,44.74 130.27,35.72 C130.27,26.7 136.95,18.94 146.51,18.94 C156.07,18.94 162.69,26.58 162.69,35.94 L162.69,52 L154.6,44 L154.6,36 C154.6,31.05 150.99,27 146.51,27 C142.03,27 138.42,30.94 138.42,35.77 C138.373066,37.976487 139.22962,40.1063667 140.791138,41.6659971 C142.352657,43.2256276 144.483571,44.0796039 146.69,44.03 L151.83,44.03 L151.83,52.03 L145.71,52 Z"
                          id="Shape" fill="#000000" fill-rule="nonzero"></path>
                    <path d="M3.63,60.61 C4.05926242,62.2280033 5.25521172,63.5323355 6.83,64.1 C20.12,66.38 30.71,65.46 43.55,61.28 C45.1126005,60.5413346 46.3807977,59.2977967 47.15,57.75 C51.44,45.59 53.43,34.18 49.62,21.48 C49.0032923,19.9115304 47.6968092,18.7157662 46.08,18.24 C32.6842516,15.3211217 18.8970034,14.6452762 5.28,16.24 C3.64165088,16.5954791 2.36048002,17.8727439 2,19.51 C0.218499551,33.2029188 0.762823721,47.0983992 3.61,60.61"
                          id="Shape" fill="#238FFB" fill-rule="nonzero"></path>
                    <path d="M58.26,44 C58.0256754,45.5359532 56.8888643,46.7793403 55.38,47.15 C42.9872368,49.1050362 30.3214307,48.4235293 18.21,45.15 C16.7122701,44.6563212 15.5507622,43.4612005 15.1,41.95 C12.2771639,30.0987076 11.6232856,17.8342546 13.17,5.75 C13.4822581,4.23807524 14.6959157,3.07614736 16.22,2.83 C29.5795247,0.882338415 43.1194885,0.486374169 56.57,1.65 C58.1252704,1.84381528 59.3382822,3.09006025 59.49,4.65 C60.4739707,17.7732286 60.0616592,30.9638444 58.26,44"
                          id="Shape" fill="#2549C9" fill-rule="nonzero"></path>
                    <path d="M19,51.52 C19.5362711,53.2432993 20.8742824,54.5999459 22.59,55.16 C35.2065883,58.471696 48.2179747,60.0362925 61.26,59.81 C63.0485516,59.6123045 64.5124444,58.297214 64.9,56.54 C66.9924831,43.1857033 67.2783819,29.6105538 65.75,16.18 C65.4788267,14.4225556 64.2946459,12.9413777 62.64,12.29 C51.2173236,9.37508868 39.1999601,9.78098693 28,13.46 C26.2631111,14.1355603 24.8093863,15.3846345 23.88,17 C18.3295734,27.6023109 16.6059815,39.7946041 19,51.52"
                          id="Shape" fill="#000000" fill-rule="nonzero"></path>
                    <path d="M44.22,51.94 C35.36,51.94 28.71,44.67 28.71,35.66 C28.71,26.65 35.42,18.88 45,18.88 C54.58,18.88 61.25,26.52 61.25,35.88 L61.25,51.88 L53.13,43.83 L53.13,35.83 C53.13,30.88 49.5,26.83 45,26.83 C40.5,26.83 36.87,30.78 36.87,35.6 C36.8283995,37.8119102 37.6922138,39.9448102 39.2612603,41.504416 C40.8303069,43.0640219 42.9683811,43.9149485 45.18,43.86 L49.86,43.86 L49.86,51.86 L44.22,51.94 Z"
                          id="Shape" fill="#FFFFFF" fill-rule="nonzero"></path>
                    <path d="M202.08,22.38 L201.63,22.38 L201.63,19 L200.36,22.37 L200,22.37 L198.77,19 L198.77,22.37 L198.32,22.37 L198.32,18.61 L199.16,18.61 L200.21,21.39 L201.21,18.61 L202.05,18.61 L202.08,22.38 Z M197.62,19 L196.45,19 L196.45,22.41 L196,22.41 L196,19 L194.83,19 L194.83,18.64 L197.63,18.64 L197.62,19 Z"
                          id="Shape" fill="#000000" fill-rule="nonzero"></path>
                </g>
            </g>
        </g>
    </g>
</svg>
