<svg width="66px" height="65px" viewBox="0 0 66 65" version="1.1" xmlns="http://www.w3.org/2000/svg"
     xmlns:xlink="http://www.w3.org/1999/xlink">
    <!-- Generator: Sketch 50.2 (55047) - http://www.bohemiancoding.com/sketch -->
    <desc>Created with Sketch.</desc>
    <defs></defs>
    <g id="Style-Guide" stroke="none" stroke-width="1" fill="none" fill-rule="evenodd">
        <g id="Logos" transform="translate(-376.000000, -324.000000)">
            <g id="-g-LOGO/A" transform="translate(375.000000, 323.000000)">
                <g id="Group">
                    <path d="M3.63,60.61 C4.05926242,62.2280033 5.25521172,63.5323355 6.83,64.1 C20.12,66.38 30.71,65.46 43.55,61.28 C45.1126005,60.5413346 46.3807977,59.2977967 47.15,57.75 C51.44,45.59 53.43,34.18 49.62,21.48 C49.0032923,19.9115304 47.6968092,18.7157662 46.08,18.24 C32.6842516,15.3211217 18.8970034,14.6452762 5.28,16.24 C3.64165088,16.5954791 2.36048002,17.8727439 2,19.51 C0.218499551,33.2029188 0.762823721,47.0983992 3.61,60.61"
                          id="Shape" fill="#238FFB" fill-rule="nonzero"></path>
                    <path d="M58.26,44 C58.0256754,45.5359532 56.8888643,46.7793403 55.38,47.15 C42.9872368,49.1050362 30.3214307,48.4235293 18.21,45.15 C16.7122701,44.6563212 15.5507622,43.4612005 15.1,41.95 C12.2771639,30.0987076 11.6232856,17.8342546 13.17,5.75 C13.4822581,4.23807524 14.6959157,3.07614736 16.22,2.83 C29.5795247,0.882338415 43.1194885,0.486374169 56.57,1.65 C58.1252704,1.84381528 59.3382822,3.09006025 59.49,4.65 C60.4739707,17.7732286 60.0616592,30.9638444 58.26,44"
                          id="Shape" fill="#2549C9" fill-rule="nonzero"></path>
                    <path d="M19,51.52 C19.5362711,53.2432993 20.8742824,54.5999459 22.59,55.16 C35.2065883,58.471696 48.2179747,60.0362925 61.26,59.81 C63.0485516,59.6123045 64.5124444,58.297214 64.9,56.54 C66.9924831,43.1857033 67.2783819,29.6105538 65.75,16.18 C65.4788267,14.4225556 64.2946459,12.9413777 62.64,12.29 C51.2173236,9.37508868 39.1999601,9.78098693 28,13.46 C26.2631111,14.1355603 24.8093863,15.3846345 23.88,17 C18.3295734,27.6023109 16.6059815,39.7946041 19,51.52"
                          id="Shape" fill="#000000" fill-rule="nonzero"></path>
                    <path d="M44.22,51.94 C35.36,51.94 28.71,44.67 28.71,35.66 C28.71,26.65 35.42,18.88 45,18.88 C54.58,18.88 61.25,26.52 61.25,35.88 L61.25,51.88 L53.13,43.83 L53.13,35.83 C53.13,30.88 49.5,26.83 45,26.83 C40.5,26.83 36.87,30.78 36.87,35.6 C36.8283995,37.8119102 37.6922138,39.9448102 39.2612603,41.504416 C40.8303069,43.0640219 42.9683811,43.9149485 45.18,43.86 L49.86,43.86 L49.86,51.86 L44.22,51.94 Z"
                          id="Shape" fill="#FFFFFF" fill-rule="nonzero"></path>
                </g>
            </g>
        </g>
    </g>
</svg>
